HIERARCHY
ROOT Hips
{
	OFFSET 0.000000 0.000000 0.000000
	CHANNELS 6 Xposition Yposition Zposition Zrotation Yrotation Xrotation 
	JOINT LowerBack
	{
		OFFSET 0.000000 0.000000 0.000000
		CHANNELS 3 Zrotation Yrotation Xrotation
		JOINT Spine
		{
			OFFSET 0.028270 2.035590 -0.193380
			CHANNELS 3 Zrotation Yrotation Xrotation
			JOINT Spine1
			{
				OFFSET 0.056720 2.048850 -0.042750
				CHANNELS 3 Zrotation Yrotation Xrotation
				JOINT Neck
				{
					OFFSET 0.000000 0.000000 0.000000
					CHANNELS 3 Zrotation Yrotation Xrotation
					JOINT Neck1
					{
						OFFSET -0.054170 1.746240 0.172020
						CHANNELS 3 Zrotation Yrotation Xrotation
						JOINT Head
						{
							OFFSET 0.104070 1.761360 -0.123970
							CHANNELS 3 Zrotation Yrotation Xrotation
							End Site
							{
								OFFSET 0.000000 0.000000 0.000000
							}
						}
					}
				}
				JOINT LeftShoulder
				{
					OFFSET 0.000000 0.000000 0.000000
					CHANNELS 3 Zrotation Yrotation Xrotation
					JOINT LeftArm
					{
						OFFSET 3.362410 1.200890 -0.311210
						CHANNELS 3 Zrotation Yrotation Xrotation
						JOINT LeftForeArm
						{
							OFFSET 4.983000 -0.000000 -0.000000
							CHANNELS 3 Zrotation Yrotation Xrotation
							JOINT LeftHand
							{
								OFFSET 3.483560 -0.000000 -0.000000
								CHANNELS 3 Zrotation Yrotation Xrotation
								JOINT LeftFingerBase
								{
									OFFSET 0.000000 0.000000 0.000000
									CHANNELS 3 Zrotation Yrotation Xrotation
									JOINT LeftHandIndex1
									{
										OFFSET 0.715260 -0.000000 -0.000000
										CHANNELS 3 Zrotation Yrotation Xrotation
										End Site
										{
											OFFSET 0.000000 0.000000 0.000000
										}
									}
								}
								JOINT LThumb
								{
									OFFSET 0.000000 0.000000 0.000000
									CHANNELS 3 Zrotation Yrotation Xrotation
									End Site
									{
										OFFSET 0.000000 0.000000 0.000000
									}
								}
							}
						}
					}
				}
				JOINT RightShoulder
				{
					OFFSET 0.000000 0.000000 0.000000
					CHANNELS 3 Zrotation Yrotation Xrotation
					JOINT RightArm
					{
						OFFSET -3.136600 1.374050 -0.404650
						CHANNELS 3 Zrotation Yrotation Xrotation
						JOINT RightForeArm
						{
							OFFSET -5.241900 -0.000000 -0.000000
							CHANNELS 3 Zrotation Yrotation Xrotation
							JOINT RightHand
							{
								OFFSET -3.444170 -0.000000 -0.000000
								CHANNELS 3 Zrotation Yrotation Xrotation
								JOINT RightFingerBase
								{
									OFFSET 0.000000 0.000000 0.000000
									CHANNELS 3 Zrotation Yrotation Xrotation
									JOINT RightHandIndex1
									{
										OFFSET -0.622530 -0.000000 -0.000000
										CHANNELS 3 Zrotation Yrotation Xrotation
										End Site
										{
											OFFSET 0.000000 0.000000 0.000000
										}
									}
								}
								JOINT RThumb
								{
									OFFSET 0.000000 0.000000 0.000000
									CHANNELS 3 Zrotation Yrotation Xrotation
									End Site
									{
										OFFSET 0.000000 0.000000 0.000000
									}
								}
							}
						}
					}
				}
			}
		}
	}
}
}
MOTION
Frames: 15
Frame Time: 0.008333
-0.963749 17.009470 -0.317644 18.041426 83.494668 22.024333 -5.873184 0.103363 -3.589581 -1.719270 0.372422 -2.957196 -5.303847 0.279798 2.860616 10.826995 -12.466744 -9.805455 -1.835833 -0.118053 -0.554206 0.000000 0.000000 0.000000 -5.325680 25.763077 1.145035 -81.684147 27.040550 5.206871 -3.480296 -22.173730 -0.016186 -5.318733 6.465549 -0.305663 -0.027693 -0.134106 -0.000000 0.000000 0.000000 0.000000 0.000000 0.000000 0.000000 12.814103 -7.191694 -0.005852 45.922406 15.379735 10.704000 1.827549 47.851094 0.009858 1.853751 4.377691 0.071765 0.052653 -0.139945 0.000000 0.000000 0.000000 0.000000 0.000000 0.000000 0.000000 
-0.781726 17.010540 -0.297511 19.382703 83.259140 23.165694 -6.253704 -0.033007 -3.409031 -1.797382 0.269241 -2.939627 -5.339320 0.178553 2.803659 10.967383 -12.551006 -9.796504 -1.862511 -0.120155 -0.553475 0.000000 0.000000 0.000000 -5.176144 25.486027 1.114461 -81.264734 26.707275 5.644643 -3.475757 -22.590900 -0.015574 -5.188407 6.125539 -0.282545 -0.028983 -0.131221 -0.000000 0.000000 0.000000 0.000000 0.000000 0.000000 0.000000 13.054033 -7.305806 -0.016255 46.462103 14.814502 11.032084 1.848559 47.915496 0.009876 1.872252 4.312696 0.071375 0.054149 -0.136839 0.000000 0.000000 0.000000 0.000000 0.000000 0.000000 0.000000 
-0.602662 17.010956 -0.276764 20.468715 83.008350 24.060221 -6.609352 -0.172508 -3.222774 -1.869677 0.160586 -2.920506 -5.373115 0.071964 2.746309 11.097120 -12.632232 -9.789313 -1.889133 -0.122211 -0.553240 0.000000 0.000000 0.000000 -5.024039 25.185272 1.089016 -80.830357 26.304867 6.027751 -3.474723 -22.981201 -0.015028 -5.063016 5.852738 -0.263427 -0.030523 -0.128324 -0.000000 0.000000 0.000000 0.000000 0.000000 0.000000 0.000000 13.276304 -7.416480 -0.027438 47.057371 14.236705 11.346341 1.871176 47.955188 0.009900 1.903734 4.240017 0.071285 0.055525 -0.133715 0.000000 0.000000 0.000000 0.000000 0.000000 0.000000 0.000000 
-0.426337 17.010746 -0.255867 21.219775 82.734237 24.630937 -6.928495 -0.311396 -3.036371 -1.933805 0.049329 -2.899124 -5.404556 -0.037031 2.695830 11.216756 -12.718045 -9.788663 -1.914987 -0.124091 -0.554776 0.000000 0.000000 0.000000 -4.863613 24.894249 1.068298 -80.382509 25.807704 6.369058 -3.477624 -23.314149 -0.014548 -4.944116 5.640691 -0.247909 -0.032370 -0.125371 -0.000000 0.000000 0.000000 0.000000 0.000000 0.000000 0.000000 13.484712 -7.530326 -0.040600 47.691019 13.665310 11.661140 1.894539 47.965994 0.009928 1.946542 4.165345 0.071595 0.056727 -0.130586 0.000000 0.000000 0.000000 0.000000 0.000000 0.000000 0.000000 
-0.252653 17.010186 -0.234870 21.647211 82.422819 24.891456 -7.210592 -0.444289 -2.857154 -1.990338 -0.059300 -2.878542 -5.435392 -0.143411 2.645829 11.324666 -12.804988 -9.788167 -1.941358 -0.126018 -0.556203 0.000000 0.000000 0.000000 -4.711274 24.583800 1.049391 -79.918972 25.257726 6.633968 -3.484175 -23.621783 -0.014129 -4.830050 5.481658 -0.235190 -0.034461 -0.122402 -0.000000 0.000000 0.000000 0.000000 0.000000 0.000000 0.000000 13.679221 -7.643121 -0.053383 48.363176 13.086978 11.962273 1.919967 47.952723 0.009976 2.010730 4.087461 0.072603 0.057710 -0.127468 0.000000 0.000000 0.000000 0.000000 0.000000 0.000000 0.000000 
-0.081286 17.009642 -0.214069 21.718248 82.062524 24.809762 -7.448051 -0.567090 -2.690764 -2.038147 -0.161737 -2.860002 -5.466484 -0.243661 2.596299 11.420007 -12.890442 -9.785743 -1.969069 -0.128097 -0.556874 0.000000 0.000000 0.000000 -4.573334 24.256888 1.030819 -79.439377 24.664213 6.806617 -3.494456 -23.901786 -0.013761 -4.719728 5.363458 -0.224671 -0.036805 -0.119400 -0.000000 0.000000 0.000000 0.000000 0.000000 0.000000 0.000000 13.862233 -7.751338 -0.065704 49.065361 12.499238 12.246340 1.947638 47.914707 0.010045 2.098565 4.009064 0.074311 0.058442 -0.124363 0.000000 0.000000 0.000000 0.000000 0.000000 0.000000 0.000000 
0.088103 17.009462 -0.193894 21.385447 81.646496 24.338310 -7.628658 -0.677484 -2.541896 -2.074878 -0.256441 -2.842524 -5.497513 -0.336094 2.555890 11.504847 -12.979592 -9.786663 -1.997943 -0.130232 -0.558220 0.000000 0.000000 0.000000 -4.443143 23.957373 1.012159 -78.943524 23.991577 6.907903 -3.508814 -24.111750 -0.013433 -4.611334 5.269982 -0.215450 -0.039483 -0.116271 -0.000000 0.000000 0.000000 0.000000 0.000000 0.000000 0.000000 14.041600 -7.859437 -0.080101 49.778250 11.920615 12.528433 1.976552 47.844015 0.010125 2.201365 3.939149 0.076717 0.058937 -0.121274 0.000000 0.000000 0.000000 0.000000 0.000000 0.000000 0.000000 
0.255843 17.010121 -0.174375 20.685423 81.166244 23.514131 -7.749919 -0.773250 -2.415040 -2.100483 -0.341338 -2.827106 -5.529596 -0.418646 2.524900 11.580485 -13.070810 -9.789574 -2.028904 -0.132530 -0.559835 0.000000 0.000000 0.000000 -4.323392 23.689271 0.992036 -78.429608 23.245798 6.934641 -3.527184 -24.247626 -0.013129 -4.501079 5.187650 -0.206727 -0.042502 -0.112999 -0.000000 0.000000 0.000000 0.000000 0.000000 0.000000 0.000000 14.222760 -7.965593 -0.097013 50.495316 11.348549 12.803400 2.006976 47.737975 0.010215 2.316555 3.881310 0.079522 0.059225 -0.118210 0.000000 0.000000 0.000000 0.000000 0.000000 0.000000 0.000000 
0.421998 17.012147 -0.155154 19.717661 80.612903 22.433324 -7.816726 -0.852536 -2.311174 -2.116592 -0.414199 -2.816759 -5.565098 -0.489261 2.491925 11.644297 -13.154804 -9.783716 -2.063951 -0.135333 -0.558691 0.000000 0.000000 0.000000 -4.231378 23.399430 0.968116 -77.893734 22.493488 6.842563 -3.548832 -24.358926 -0.012835 -4.384765 5.108358 -0.198005 -0.045764 -0.109685 -0.000000 0.000000 0.000000 0.000000 0.000000 0.000000 0.000000 14.403181 -8.061480 -0.113538 51.229555 10.759971 13.040423 2.040887 47.594659 0.010325 2.449685 3.829442 0.083026 0.059354 -0.115174 0.000000 0.000000 0.000000 0.000000 0.000000 0.000000 0.000000 
0.586928 17.015829 -0.136414 18.501098 79.990307 21.114421 -7.820943 -0.916901 -2.230971 -2.121415 -0.477039 -2.809497 -5.603262 -0.549736 2.466207 11.699091 -13.235529 -9.775600 -2.102445 -0.138485 -0.556633 0.000000 0.000000 0.000000 -4.152720 23.134652 0.941464 -77.336495 21.691883 6.669248 -3.574254 -24.399988 -0.012544 -4.262073 5.022093 -0.188980 -0.049349 -0.106246 -0.000000 0.000000 0.000000 0.000000 0.000000 0.000000 0.000000 14.589355 -8.151567 -0.133317 51.966649 10.168654 13.249048 2.076981 47.404959 0.010436 2.586418 3.792639 0.086931 0.059386 -0.112173 0.000000 0.000000 0.000000 0.000000 0.000000 0.000000 0.000000 
0.750679 17.021374 -0.117771 17.140811 79.302236 19.657965 -7.768920 -0.968555 -2.170371 -2.116269 -0.531486 -2.804803 -5.644358 -0.601608 2.446404 11.745828 -13.315019 -9.764344 -2.144365 -0.141995 -0.553482 0.000000 0.000000 0.000000 -4.084992 22.887500 0.911811 -76.755032 20.854012 6.425550 -3.603079 -24.378442 -0.012246 -4.130976 4.923817 -0.179253 -0.053225 -0.102718 -0.000000 0.000000 0.000000 0.000000 0.000000 0.000000 0.000000 14.782383 -8.239848 -0.156408 52.711048 9.574423 13.417132 2.115731 47.160920 0.010541 2.720638 3.769794 0.090934 0.059409 -0.109214 0.000000 0.000000 0.000000 0.000000 0.000000 0.000000 0.000000 
0.913288 17.028877 -0.098948 15.720263 78.559244 18.142454 -7.665057 -1.010968 -2.123812 -2.101882 -0.580572 -2.802493 -5.688450 -0.647871 2.428382 11.782667 -13.388429 -9.746660 -2.189881 -0.145923 -0.548375 0.000000 0.000000 0.000000 -4.027891 22.639342 0.879966 -76.148372 20.005302 6.107862 -3.635168 -24.312847 -0.011948 -3.994623 4.814877 -0.169126 -0.057346 -0.099154 -0.000000 0.000000 0.000000 0.000000 0.000000 0.000000 0.000000 14.978022 -8.323605 -0.182509 53.470795 8.964711 13.523567 2.157516 46.858424 0.010639 2.848901 3.758205 0.094837 0.059474 -0.106299 0.000000 0.000000 0.000000 0.000000 0.000000 0.000000 0.000000 
1.074686 17.038219 -0.079638 14.318101 77.776115 16.640204 -7.517689 -1.048801 -2.083329 -2.079549 -0.628194 -2.801196 -5.734804 -0.692318 2.410760 11.809294 -13.456796 -9.722441 -2.238318 -0.150202 -0.541371 0.000000 0.000000 0.000000 -3.975878 22.382692 0.847104 -75.515254 19.157010 5.732957 -3.670288 -24.213930 -0.011655 -3.857374 4.697835 -0.159097 -0.061671 -0.095595 -0.000000 0.000000 0.000000 0.000000 0.000000 0.000000 0.000000 15.173200 -8.406463 -0.211716 54.251403 8.336408 13.553451 2.202316 46.492947 0.010718 2.965567 3.755170 0.098640 0.059642 -0.103430 -0.000000 0.000000 0.000000 0.000000 0.000000 0.000000 0.000000 
1.234836 17.049127 -0.059443 12.999626 76.971117 15.210351 -7.337894 -1.087516 -2.039860 -2.050931 -0.678835 -2.798568 -5.782014 -0.739274 2.395161 11.826926 -13.527930 -9.695419 -2.288194 -0.154639 -0.533600 0.000000 0.000000 0.000000 -3.920156 22.122510 0.814510 -74.852778 18.305254 5.336433 -3.708148 -24.085158 -0.011377 -3.723802 4.576272 -0.149269 -0.066173 -0.092056 -0.000000 0.000000 0.000000 0.000000 0.000000 0.000000 0.000000 15.366572 -8.499132 -0.244400 55.055281 7.697433 13.500622 2.249871 46.058772 0.010774 3.062810 3.758788 0.101941 0.059987 -0.100608 -0.000000 0.000000 0.000000 0.000000 0.000000 0.000000 0.000000 
1.393652 17.061223 -0.038135 11.805407 76.163714 13.887776 -7.135777 -1.131954 -1.984947 -2.017543 -0.736460 -2.793315 -5.829058 -0.792655 2.379469 11.834919 -13.603313 -9.665888 -2.338542 -0.159135 -0.525199 0.000000 0.000000 0.000000 -3.857087 21.847623 0.783697 -74.158467 17.465232 4.936386 -3.748413 -23.946990 -0.011131 -3.602151 4.457241 -0.140240 -0.070798 -0.088586 -0.000000 0.000000 0.000000 0.000000 0.000000 0.000000 0.000000 15.553373 -8.605468 -0.279838 55.887479 7.043124 13.350760 2.300022 45.556947 0.010797 3.137763 3.764657 0.104543 0.060541 -0.097834 -0.000000 0.000000 0.000000 0.000000 0.000000 0.000000 0.000000 
